<svg xmlns="http://www.w3.org/2000/svg" width="100" height="40"><path d="M 71.527 19.2 L 71.527 21.492 L 70.09 21.492 L 70.09 22.994 L 71.526 22.994 L 71.526 28.1 C 71.526 29.844 72.314 30.54 74.298 30.54 C 74.647 30.54 74.978 30.5 75.269 30.45 L 75.269 28.964 C 75.02 28.988 74.863 29.005 74.589 29.005 C 73.7 29.005 73.31 28.59 73.31 27.644 L 73.31 22.995 L 75.27 22.995 L 75.27 21.493 L 73.31 21.493 L 73.31 19.2 L 71.526 19.2 Z M 80.324 30.664 C 82.964 30.664 84.582 28.896 84.582 25.966 C 84.582 23.052 82.956 21.276 80.324 21.276 C 77.684 21.276 76.058 23.052 76.058 25.966 C 76.058 28.896 77.676 30.664 80.324 30.664 Z M 80.324 29.079 C 78.772 29.079 77.9 27.942 77.9 25.966 C 77.9 24.007 78.772 22.861 80.324 22.861 C 81.868 22.861 82.748 24.007 82.748 25.966 C 82.748 27.933 81.868 29.079 80.324 29.079 Z M 85.967 30.49 L 87.752 30.49 L 87.752 25.153 C 87.752 23.883 88.707 23.028 90.06 23.028 C 90.375 23.028 90.906 23.086 91.056 23.135 L 91.056 21.375 C 90.865 21.325 90.524 21.301 90.259 21.301 C 89.08 21.301 88.076 21.948 87.819 22.837 L 87.686 22.837 L 87.686 21.45 L 85.967 21.45 Z M 95.487 22.795 C 96.807 22.795 97.67 23.716 97.712 25.135 L 93.146 25.135 C 93.246 23.725 94.167 22.795 95.487 22.795 Z M 97.703 28.049 C 97.371 28.755 96.633 29.145 95.553 29.145 C 94.126 29.145 93.204 28.141 93.146 26.555 L 93.146 26.455 L 99.53 26.455 L 99.53 25.833 C 99.53 22.994 98.01 21.276 95.495 21.276 C 92.947 21.276 91.328 23.11 91.328 25.999 C 91.328 28.888 92.914 30.664 95.504 30.664 C 97.571 30.664 99.015 29.668 99.422 28.049 Z M 59.823 27.152 C 59.961 29.372 61.811 30.791 64.563 30.791 C 67.506 30.791 69.347 29.303 69.347 26.928 C 69.347 25.061 68.297 24.028 65.751 23.435 L 64.383 23.1 C 62.766 22.72 62.112 22.213 62.112 21.327 C 62.112 20.209 63.127 19.477 64.65 19.477 C 66.095 19.477 67.093 20.192 67.274 21.336 L 69.149 21.336 C 69.037 19.246 67.196 17.774 64.675 17.774 C 61.965 17.774 60.159 19.245 60.159 21.456 C 60.159 23.28 61.182 24.364 63.428 24.889 L 65.028 25.276 C 66.671 25.663 67.394 26.231 67.394 27.178 C 67.394 28.278 66.258 29.078 64.71 29.078 C 63.05 29.078 61.897 28.33 61.733 27.152 Z M 41.336 21.301 C 40.107 21.301 39.045 21.915 38.496 22.945 L 38.364 22.945 L 38.364 21.45 L 36.646 21.45 L 36.646 33.495 L 38.431 33.495 L 38.431 29.12 L 38.571 29.12 C 39.045 30.075 40.066 30.64 41.352 30.64 C 43.635 30.64 45.088 28.838 45.088 25.966 C 45.088 23.094 43.635 21.301 41.336 21.301 Z M 40.829 29.037 C 39.335 29.037 38.397 27.859 38.397 25.974 C 38.397 24.082 39.335 22.903 40.837 22.903 C 42.348 22.903 43.253 24.057 43.253 25.966 C 43.253 27.884 42.348 29.037 40.829 29.037 Z M 51.333 21.301 C 50.104 21.301 49.042 21.915 48.493 22.945 L 48.361 22.945 L 48.361 21.45 L 46.643 21.45 L 46.643 33.495 L 48.427 33.495 L 48.427 29.12 L 48.568 29.12 C 49.042 30.075 50.063 30.64 51.349 30.64 C 53.632 30.64 55.085 28.838 55.085 25.966 C 55.085 23.094 53.632 21.301 51.333 21.301 Z M 50.826 29.037 C 49.332 29.037 48.394 27.859 48.394 25.974 C 48.394 24.082 49.332 22.903 50.834 22.903 C 52.345 22.903 53.25 24.057 53.25 25.966 C 53.25 27.884 52.345 29.037 50.826 29.037 Z M 33.444 30.49 L 35.491 30.49 L 31.01 18.075 L 28.937 18.075 L 24.453 30.49 L 26.432 30.49 L 27.576 27.195 L 32.308 27.195 Z M 29.874 20.33 L 30.02 20.33 L 31.818 25.577 L 28.067 25.577 L 29.873 20.329 Z M 25.65 8.71 L 25.65 14.7 L 27.813 14.7 C 29.597 14.7 30.631 13.6 30.631 11.687 C 30.631 9.802 29.589 8.711 27.813 8.711 L 25.65 8.711 Z M 26.58 9.558 L 27.709 9.558 C 28.95 9.558 29.685 10.346 29.685 11.699 C 29.685 13.073 28.962 13.853 27.709 13.853 L 26.58 13.853 Z M 33.796 14.787 C 35.116 14.787 35.926 13.903 35.926 12.438 C 35.926 10.981 35.112 10.093 33.796 10.093 C 32.476 10.093 31.663 10.981 31.663 12.438 C 31.663 13.903 32.472 14.788 33.796 14.788 Z M 33.796 13.994 C 33.02 13.994 32.584 13.426 32.584 12.438 C 32.584 11.458 33.02 10.886 33.796 10.886 C 34.568 10.886 35.008 11.459 35.008 12.438 C 35.008 13.422 34.568 13.994 33.796 13.994 Z M 42.817 10.18 L 41.925 10.18 L 41.12 13.63 L 41.05 13.63 L 40.12 10.18 L 39.265 10.18 L 38.335 13.63 L 38.268 13.63 L 37.459 10.18 L 36.554 10.18 L 37.8 14.7 L 38.718 14.7 L 39.648 11.371 L 39.718 11.371 L 40.652 14.7 L 41.577 14.7 L 42.818 10.18 Z M 43.845 14.7 L 44.737 14.7 L 44.737 12.056 C 44.737 11.351 45.157 10.911 45.817 10.911 C 46.477 10.911 46.792 11.271 46.792 11.998 L 46.792 14.7 L 47.684 14.7 L 47.684 11.774 C 47.684 10.699 47.128 10.093 46.119 10.093 C 45.439 10.093 44.99 10.396 44.77 10.898 L 44.704 10.898 L 44.704 10.18 L 43.844 10.18 L 43.844 14.7 Z M 49.09 14.7 L 49.982 14.7 L 49.982 8.416 L 49.089 8.416 L 49.089 14.7 Z M 53.338 14.787 C 54.658 14.787 55.467 13.903 55.467 12.438 C 55.467 10.981 54.653 10.093 53.337 10.093 C 52.017 10.093 51.204 10.981 51.204 12.438 C 51.204 13.903 52.014 14.788 53.338 14.788 Z M 53.338 13.994 C 52.562 13.994 52.126 13.426 52.126 12.438 C 52.126 11.458 52.562 10.886 53.338 10.886 C 54.11 10.886 54.55 11.459 54.55 12.438 C 54.55 13.422 54.11 13.994 53.338 13.994 Z M 58.126 14.023 C 57.64 14.023 57.287 13.787 57.287 13.38 C 57.287 12.982 57.569 12.77 58.192 12.728 L 59.296 12.658 L 59.296 13.036 C 59.296 13.596 58.798 14.023 58.126 14.023 Z M 57.897 14.775 C 58.491 14.775 58.985 14.517 59.254 14.065 L 59.325 14.065 L 59.325 14.7 L 60.185 14.7 L 60.185 11.612 C 60.185 10.658 59.545 10.093 58.412 10.093 C 57.387 10.093 56.656 10.591 56.565 11.367 L 57.428 11.367 C 57.528 11.047 57.872 10.865 58.37 10.865 C 58.98 10.865 59.296 11.135 59.296 11.612 L 59.296 12.002 L 58.072 12.072 C 56.997 12.139 56.391 12.608 56.391 13.422 C 56.391 14.248 57.026 14.775 57.897 14.775 Z M 63.212 14.775 C 63.835 14.775 64.362 14.48 64.632 13.986 L 64.702 13.986 L 64.702 14.7 L 65.557 14.7 L 65.557 8.416 L 64.665 8.416 L 64.665 10.898 L 64.598 10.898 C 64.354 10.4 63.831 10.105 63.212 10.105 C 62.071 10.105 61.336 11.01 61.336 12.438 C 61.336 13.87 62.063 14.775 63.212 14.775 Z M 63.465 10.906 C 64.213 10.906 64.681 11.5 64.681 12.442 C 64.681 13.388 64.217 13.974 63.465 13.974 C 62.71 13.974 62.258 13.397 62.258 12.438 C 62.258 11.488 62.714 10.906 63.465 10.906 Z M 71.344 14.787 C 72.664 14.787 73.473 13.903 73.473 12.438 C 73.473 10.981 72.659 10.093 71.343 10.093 C 70.023 10.093 69.21 10.981 69.21 12.438 C 69.21 13.903 70.02 14.788 71.344 14.788 Z M 71.344 13.994 C 70.568 13.994 70.132 13.426 70.132 12.438 C 70.132 11.458 70.568 10.886 71.344 10.886 C 72.116 10.886 72.556 11.459 72.556 12.438 C 72.556 13.422 72.116 13.994 71.344 13.994 Z M 74.654 14.7 L 75.546 14.7 L 75.546 12.056 C 75.546 11.351 75.966 10.911 76.626 10.911 C 77.286 10.911 77.601 11.271 77.601 11.998 L 77.601 14.7 L 78.493 14.7 L 78.493 11.774 C 78.493 10.699 77.937 10.093 76.929 10.093 C 76.248 10.093 75.799 10.396 75.579 10.898 L 75.513 10.898 L 75.513 10.18 L 74.654 10.18 Z M 82.603 9.055 L 82.603 10.201 L 81.885 10.201 L 81.885 10.952 L 82.603 10.952 L 82.603 13.505 C 82.603 14.376 82.997 14.725 83.989 14.725 C 84.163 14.725 84.329 14.705 84.475 14.679 L 84.475 13.936 C 84.362 13.95 84.249 13.957 84.135 13.957 C 83.69 13.957 83.495 13.749 83.495 13.277 L 83.495 10.952 L 84.475 10.952 L 84.475 10.201 L 83.495 10.201 L 83.495 9.055 Z M 85.672 14.7 L 86.565 14.7 L 86.565 12.06 C 86.565 11.376 86.972 10.915 87.702 10.915 C 88.332 10.915 88.669 11.28 88.669 12.002 L 88.669 14.7 L 89.561 14.7 L 89.561 11.782 C 89.561 10.707 88.968 10.097 88.005 10.097 C 87.325 10.097 86.847 10.4 86.627 10.907 L 86.557 10.907 L 86.557 8.417 L 85.672 8.417 Z M 92.78 10.852 C 93.44 10.852 93.872 11.313 93.893 12.022 L 91.61 12.022 C 91.66 11.317 92.121 10.852 92.78 10.852 Z M 93.889 13.48 C 93.723 13.832 93.353 14.028 92.814 14.028 C 92.1 14.028 91.639 13.525 91.61 12.733 L 91.61 12.683 L 94.802 12.683 L 94.802 12.372 C 94.802 10.952 94.042 10.093 92.785 10.093 C 91.51 10.093 90.701 11.01 90.701 12.455 C 90.701 13.899 91.494 14.787 92.789 14.787 C 93.822 14.787 94.544 14.289 94.748 13.48 Z M 14.77 20.3 C 14.8 18.606 15.687 17.043 17.127 16.149 C 16.204 14.848 14.729 14.05 13.135 13.991 C 11.456 13.815 9.828 14.996 8.972 14.996 C 8.1 14.996 6.782 14.009 5.364 14.038 C 3.5 14.107 1.806 15.14 0.891 16.766 C -1.043 20.114 0.4 25.036 2.252 27.742 C 3.179 29.067 4.262 30.547 5.68 30.495 C 7.067 30.437 7.585 29.61 9.26 29.61 C 10.918 29.61 11.404 30.495 12.85 30.462 C 14.339 30.438 15.276 29.13 16.17 27.792 C 16.836 26.848 17.349 25.804 17.69 24.7 C 15.929 23.944 14.783 22.216 14.77 20.3 Z M 12.038 12.211 C 12.849 11.237 13.249 9.985 13.153 8.721 C 11.913 8.851 10.768 9.444 9.945 10.381 C 9.138 11.307 8.727 12.514 8.802 13.741 C 10.057 13.747 11.246 13.184 12.038 12.211 Z" fill="rgb(18, 18, 18)"></path></svg>