<svg xmlns="http://www.w3.org/2000/svg" width="116" height="40"><path d="M 58.137 21.751 C 55.785 21.751 53.868 23.541 53.868 26.004 C 53.868 28.454 55.785 30.257 58.137 30.257 C 60.49 30.257 62.407 28.453 62.407 26.004 C 62.406 23.54 60.489 21.751 58.137 21.751 Z M 58.137 28.583 C 56.848 28.583 55.737 27.52 55.737 26.005 C 55.737 24.475 56.849 23.427 58.137 23.427 C 59.426 23.427 60.537 24.474 60.537 26.005 C 60.537 27.519 59.426 28.583 58.137 28.583 Z M 48.823 21.751 C 46.471 21.751 44.554 23.541 44.554 26.004 C 44.554 28.454 46.471 30.257 48.823 30.257 C 51.176 30.257 53.093 28.453 53.093 26.004 C 53.093 23.54 51.176 21.751 48.823 21.751 Z M 48.823 28.583 C 47.534 28.583 46.423 27.52 46.423 26.005 C 46.423 24.475 47.535 23.427 48.823 23.427 C 50.112 23.427 51.223 24.474 51.223 26.005 C 51.224 27.519 50.112 28.583 48.823 28.583 Z M 37.745 23.057 L 37.745 24.861 L 42.063 24.861 C 41.934 25.876 41.596 26.617 41.08 27.132 C 40.452 27.76 39.469 28.453 37.745 28.453 C 35.087 28.453 33.009 26.31 33.009 23.653 C 33.009 20.994 35.087 18.851 37.745 18.851 C 39.179 18.851 40.226 19.415 40.999 20.141 L 42.272 18.867 C 41.192 17.837 39.759 17.047 37.745 17.047 C 34.104 17.047 31.043 20.011 31.043 23.652 C 31.043 27.293 34.104 30.257 37.745 30.257 C 39.71 30.257 41.193 29.612 42.352 28.404 C 43.544 27.212 43.915 25.536 43.915 24.184 C 43.919 23.806 43.887 23.428 43.818 23.056 L 37.745 23.056 Z M 83.053 24.458 C 82.699 23.508 81.619 21.751 79.412 21.751 C 77.221 21.751 75.4 23.475 75.4 26.004 C 75.4 28.388 77.205 30.257 79.621 30.257 C 81.57 30.257 82.698 29.065 83.166 28.372 L 81.716 27.405 C 81.233 28.115 80.572 28.581 79.621 28.581 C 78.671 28.581 77.994 28.146 77.559 27.292 L 83.246 24.94 Z M 77.253 25.876 C 77.205 24.232 78.526 23.396 79.477 23.396 C 80.218 23.396 80.846 23.766 81.056 24.297 L 77.253 25.877 Z M 72.63 30 L 74.498 30 L 74.498 17.5 L 72.63 17.5 Z M 69.568 22.702 L 69.504 22.702 C 69.085 22.202 68.279 21.752 67.265 21.752 C 65.138 21.752 63.189 23.62 63.189 26.022 C 63.189 28.405 65.138 30.258 67.265 30.258 C 68.28 30.258 69.085 29.808 69.504 29.292 L 69.568 29.292 L 69.568 29.904 C 69.568 31.531 68.698 32.401 67.297 32.401 C 66.153 32.401 65.444 31.581 65.154 30.887 L 63.527 31.564 C 63.994 32.691 65.234 34.077 67.297 34.077 C 69.488 34.077 71.341 32.788 71.341 29.647 L 71.341 22.01 L 69.569 22.01 L 69.569 22.702 Z M 67.426 28.583 C 66.137 28.583 65.058 27.503 65.058 26.021 C 65.058 24.522 66.137 23.427 67.426 23.427 C 68.698 23.427 69.697 24.522 69.697 26.021 C 69.697 27.503 68.698 28.583 67.426 28.583 Z M 91.807 17.5 L 87.336 17.5 L 87.336 30 L 89.201 30 L 89.201 25.264 L 91.806 25.264 C 93.874 25.264 95.908 23.767 95.908 21.382 C 95.908 18.997 93.875 17.499 91.807 17.499 Z M 91.855 23.525 L 89.201 23.525 L 89.201 19.24 L 91.855 19.24 C 93.25 19.24 94.042 20.395 94.042 21.383 C 94.042 22.351 93.25 23.525 91.855 23.525 Z M 103.387 21.73 C 102.036 21.73 100.637 22.325 100.058 23.644 L 101.714 24.335 C 102.068 23.645 102.728 23.418 103.419 23.418 C 104.384 23.418 105.365 23.998 105.381 25.026 L 105.381 25.156 C 105.043 24.962 104.319 24.673 103.435 24.673 C 101.65 24.673 99.832 25.654 99.832 27.487 C 99.832 29.16 101.296 30.237 102.936 30.237 C 104.19 30.237 104.882 29.674 105.316 29.014 L 105.38 29.014 L 105.38 29.979 L 107.182 29.979 L 107.182 25.186 C 107.183 22.968 105.525 21.73 103.387 21.73 Z M 103.161 28.581 C 102.551 28.581 101.698 28.275 101.698 27.519 C 101.698 26.554 102.76 26.184 103.677 26.184 C 104.496 26.184 104.883 26.361 105.381 26.602 C 105.24 27.724 104.292 28.57 103.161 28.582 Z M 113.744 22.003 L 111.605 27.423 L 111.541 27.423 L 109.321 22.003 L 107.311 22.003 L 110.64 29.578 L 108.742 33.792 L 110.688 33.792 L 115.819 22.003 Z M 96.938 30 L 98.803 30 L 98.803 17.5 L 96.938 17.5 Z M 37.418 10.243 C 37.418 11.081 37.17 11.748 36.673 12.246 C 36.109 12.838 35.373 13.134 34.469 13.134 C 33.603 13.134 32.866 12.834 32.261 12.234 C 31.655 11.633 31.351 10.889 31.351 10.001 C 31.351 9.111 31.655 8.368 32.261 7.768 C 32.866 7.167 33.603 6.867 34.469 6.867 C 34.899 6.867 35.309 6.951 35.699 7.117 C 36.091 7.286 36.404 7.509 36.638 7.787 L 36.111 8.316 C 35.714 7.841 35.167 7.604 34.468 7.604 C 33.836 7.604 33.29 7.826 32.828 8.27 C 32.368 8.714 32.138 9.29 32.138 10 C 32.138 10.709 32.368 11.286 32.828 11.73 C 33.263 12.164 33.854 12.404 34.468 12.396 C 35.138 12.396 35.697 12.173 36.144 11.726 C 36.434 11.435 36.602 11.03 36.647 10.511 L 34.467 10.511 L 34.467 9.79 L 37.375 9.79 C 37.405 9.947 37.418 10.098 37.418 10.243 Z M 42.028 7.737 L 39.296 7.737 L 39.296 9.639 L 41.76 9.639 L 41.76 10.36 L 39.296 10.36 L 39.296 12.262 L 42.028 12.262 L 42.028 13 L 38.525 13 L 38.525 7 L 42.028 7 Z M 45.279 13 L 44.507 13 L 44.507 7.737 L 42.832 7.737 L 42.832 7 L 46.955 7 L 46.955 7.737 L 45.279 7.737 Z M 49.938 13 L 49.938 7 L 50.708 7 L 50.708 13 Z M 54.128 13 L 53.357 13 L 53.357 7.737 L 51.68 7.737 L 51.68 7 L 55.803 7 L 55.803 7.737 L 54.127 7.737 L 54.127 13 Z M 63.608 12.225 C 63.018 12.831 62.285 13.134 61.408 13.134 C 60.531 13.134 59.798 12.831 59.209 12.225 C 58.619 11.619 58.325 10.877 58.325 10 C 58.325 9.123 58.619 8.381 59.209 7.775 C 59.799 7.169 60.531 6.865 61.409 6.865 C 62.28 6.865 63.012 7.17 63.604 7.779 C 64.196 8.388 64.492 9.128 64.492 10 C 64.492 10.877 64.197 11.619 63.608 12.225 Z M 59.778 11.722 C 60.204 12.164 60.794 12.409 61.408 12.396 C 62.051 12.396 62.595 12.171 63.038 11.722 C 63.482 11.272 63.705 10.698 63.705 10 C 63.705 9.302 63.482 8.728 63.038 8.278 C 62.613 7.836 62.022 7.591 61.408 7.604 C 60.765 7.604 60.222 7.829 59.778 8.278 C 59.335 8.728 59.112 9.302 59.112 10 C 59.112 10.698 59.335 11.272 59.778 11.722 Z M 65.575 13 L 65.575 7 L 66.513 7 L 69.428 11.667 L 69.462 11.667 L 69.428 10.511 L 69.428 7 L 70.2 7 L 70.2 13 L 69.394 13 L 66.344 8.106 L 66.311 8.106 L 66.343 9.262 L 66.343 13 L 65.574 13 Z" fill="rgb(18, 18, 18)"></path><path d="M 37.418 10.243 C 37.418 11.081 37.17 11.748 36.673 12.246 C 36.109 12.838 35.373 13.134 34.469 13.134 C 33.603 13.134 32.866 12.834 32.261 12.234 C 31.655 11.633 31.351 10.889 31.351 10.001 C 31.351 9.111 31.655 8.368 32.261 7.768 C 32.866 7.167 33.603 6.867 34.469 6.867 C 34.899 6.867 35.309 6.951 35.699 7.117 C 36.091 7.286 36.404 7.509 36.638 7.787 L 36.111 8.316 C 35.714 7.841 35.167 7.604 34.468 7.604 C 33.836 7.604 33.29 7.826 32.828 8.27 C 32.368 8.714 32.138 9.29 32.138 10 C 32.138 10.709 32.368 11.286 32.828 11.73 C 33.263 12.164 33.854 12.404 34.468 12.396 C 35.138 12.396 35.697 12.173 36.144 11.726 C 36.434 11.435 36.602 11.03 36.647 10.511 L 34.467 10.511 L 34.467 9.79 L 37.375 9.79 C 37.405 9.947 37.418 10.098 37.418 10.243 Z M 42.028 7.737 L 39.296 7.737 L 39.296 9.639 L 41.76 9.639 L 41.76 10.36 L 39.296 10.36 L 39.296 12.262 L 42.028 12.262 L 42.028 13 L 38.525 13 L 38.525 7 L 42.028 7 Z M 45.279 13 L 44.507 13 L 44.507 7.737 L 42.832 7.737 L 42.832 7 L 46.955 7 L 46.955 7.737 L 45.279 7.737 Z M 49.938 13 L 49.938 7 L 50.708 7 L 50.708 13 Z M 54.128 13 L 53.357 13 L 53.357 7.737 L 51.68 7.737 L 51.68 7 L 55.803 7 L 55.803 7.737 L 54.127 7.737 L 54.127 13 Z M 63.608 12.225 C 63.018 12.831 62.285 13.134 61.408 13.134 C 60.531 13.134 59.798 12.831 59.209 12.225 C 58.619 11.619 58.325 10.877 58.325 10 C 58.325 9.123 58.619 8.381 59.209 7.775 C 59.799 7.169 60.531 6.865 61.409 6.865 C 62.28 6.865 63.012 7.17 63.604 7.779 C 64.196 8.388 64.492 9.128 64.492 10 C 64.492 10.877 64.197 11.619 63.608 12.225 Z M 59.778 11.722 C 60.204 12.164 60.794 12.409 61.408 12.396 C 62.051 12.396 62.595 12.171 63.038 11.722 C 63.482 11.272 63.705 10.698 63.705 10 C 63.705 9.302 63.482 8.728 63.038 8.278 C 62.613 7.836 62.022 7.591 61.408 7.604 C 60.765 7.604 60.222 7.829 59.778 8.278 C 59.335 8.728 59.112 9.302 59.112 10 C 59.112 10.698 59.335 11.272 59.778 11.722 Z M 65.575 13 L 65.575 7 L 66.513 7 L 69.428 11.667 L 69.462 11.667 L 69.428 10.511 L 69.428 7 L 70.2 7 L 70.2 13 L 69.394 13 L 66.344 8.106 L 66.311 8.106 L 66.343 9.262 L 66.343 13 L 65.574 13 Z" fill="rgb(18, 18, 18)" stroke-width="0.2" stroke="rgba(255, 255, 255, 0)" stroke-miterlimit="10" stroke-dasharray=""></path><path d="M 15.855 14.232 L 4.334 7.551 C 3.885 7.282 3.371 7.14 2.848 7.14 C 1.726 7.14 0.741 7.819 0.268 8.769 L 0.354 8.855 L 10.794 19.293 L 15.855 14.233 Z M -0.026 9.89 C -0.028 9.932 -0.029 9.975 -0.029 10.017 L -0.029 29.985 C -0.029 30.027 -0.029 30.07 -0.026 30.112 L 10.087 20 L -0.026 9.889 Z M 0.268 31.232 C 0.741 32.182 1.727 32.862 2.848 32.862 C 3.379 32.862 3.878 32.718 4.307 32.465 L 4.341 32.445 L 15.875 25.788 L 10.795 20.708 L 0.355 31.146 Z M 16.772 25.27 L 21.469 22.56 C 22.399 22.06 22.981 21.091 22.985 20.035 C 22.988 18.979 22.413 18.006 21.486 17.5 L 21.476 17.493 L 16.751 14.753 L 11.5 20 L 16.771 25.27 Z" fill="rgb(18, 18, 18)"></path></svg>