<svg xmlns="http://www.w3.org/2000/svg" width="46.9" height="47"><path d="M 22.428 6.852 C 22.597 6.439 22.999 6.169 23.444 6.169 C 23.89 6.169 24.291 6.439 24.46 6.852 L 28.612 16.861 C 28.77 17.243 29.129 17.504 29.54 17.537 L 40.32 18.402 C 41.295 18.481 41.69 19.701 40.948 20.337 L 32.734 27.391 C 32.421 27.659 32.284 28.08 32.379 28.482 L 34.889 39.028 C 34.992 39.46 34.826 39.913 34.466 40.174 C 34.107 40.435 33.627 40.454 33.248 40.222 L 24.017 34.572 C 23.665 34.357 23.223 34.357 22.872 34.572 L 13.641 40.224 C 13.262 40.456 12.781 40.437 12.422 40.176 C 12.063 39.915 11.896 39.462 12 39.03 L 14.51 28.482 C 14.605 28.08 14.468 27.659 14.155 27.391 L 5.941 20.337 C 5.603 20.048 5.472 19.583 5.609 19.16 C 5.747 18.736 6.125 18.437 6.568 18.402 L 17.349 17.537 C 17.76 17.504 18.118 17.243 18.277 16.861 L 22.428 6.854 Z" fill="rgb(192, 255, 115)" stroke-width="2.93" stroke="rgb(192, 255, 115)" stroke-linecap="round" stroke-linejoin="round"></path></svg>