<svg xmlns="http://www.w3.org/2000/svg" width="86.139" height="103.657">
        <g>
          <path
            d="M 73.526 91.081 C 65.235 99.348 53.921 103.886 42.198 103.648 C 30.475 103.409 19.356 98.415 11.41 89.818 C 9.276 87.51 7.399 84.978 5.813 82.267 C 6.453 82.477 7.098 82.676 7.746 82.863 L 7.764 82.863 C 8.431 83.058 9.089 83.243 9.748 83.418 C 9.916 83.456 10.074 83.504 10.232 83.555 C 10.86 83.712 11.483 83.87 12.124 84.004 C 12.3 84.055 12.478 84.098 12.659 84.128 C 13.14 84.245 13.633 84.347 14.119 84.443 C 14.457 84.514 14.816 84.58 15.142 84.646 C 15.645 84.74 16.139 84.826 16.643 84.905 C 16.973 84.965 17.286 85.014 17.625 85.052 C 18.049 85.133 18.482 85.191 18.914 85.242 C 19.291 85.305 19.667 85.351 20.054 85.389 C 20.578 85.46 21.105 85.516 21.647 85.554 C 22.449 85.644 23.254 85.709 24.061 85.749 C 24.366 85.775 24.671 85.797 24.995 85.805 C 25.315 85.813 25.664 85.843 26.002 85.853 C 26.714 85.883 27.426 85.898 28.139 85.899 C 28.749 85.914 29.373 85.899 29.986 85.891 C 30.403 85.899 30.81 85.884 31.21 85.858 C 31.667 85.858 32.115 85.838 32.563 85.813 C 32.822 85.805 33.072 85.79 33.316 85.767 C 33.914 85.734 34.512 85.688 35.107 85.64 C 35.412 85.617 35.728 85.587 36.036 85.546 C 36.47 85.519 36.903 85.473 37.333 85.407 C 37.75 85.369 38.167 85.313 38.574 85.252 C 38.943 85.212 39.312 85.156 39.668 85.102 C 40.136 85.042 40.602 84.963 41.057 84.884 C 41.515 84.803 42.001 84.727 42.474 84.631 C 42.691 84.603 42.907 84.56 43.118 84.506 C 43.779 84.38 44.438 84.24 45.09 84.09 C 45.909 83.918 46.718 83.723 47.519 83.504 C 50.697 82.681 53.814 81.64 56.848 80.389 C 57.23 80.24 57.609 80.085 57.985 79.913 C 58.402 79.745 58.809 79.557 59.219 79.37 C 59.557 79.223 59.901 79.065 60.239 78.9 C 60.616 78.728 60.995 78.54 61.364 78.36 C 62.714 77.701 64.042 77.006 65.347 76.252 C 65.678 76.065 65.999 75.884 66.322 75.689 C 66.53 75.573 66.735 75.452 66.937 75.326 L 67.927 74.718 C 69.27 73.883 70.583 72.993 71.878 72.062 L 72.751 71.428 L 73.145 71.128 C 73.488 70.877 73.827 70.621 74.157 70.352 C 74.662 69.964 75.16 69.566 75.651 69.16 C 75.791 69.059 75.91 68.952 76.035 68.84 C 76.715 68.277 77.383 67.701 78.039 67.11 C 78.276 66.908 78.502 66.694 78.737 66.476 C 79.871 65.439 80.969 64.363 82.028 63.25 C 82.217 63.062 82.397 62.882 82.578 62.684 C 83.203 62.016 83.816 61.338 84.417 60.65 L 84.443 60.624 C 84.59 60.46 84.74 60.295 84.88 60.122 C 85.282 59.66 85.666 59.196 86.061 58.735 C 86.075 58.721 86.085 58.705 86.091 58.686 C 86.186 60.704 86.139 62.725 85.951 64.736 L 85.951 64.782 C 85.016 74.725 80.62 84.028 73.526 91.079 Z"
            fill="rgb(192,255,115)"
          ></path>
          <path
            d="M 80.96 64.363 C 61.819 83.462 33.717 90.562 7.764 82.855 C 7.742 82.857 7.72 82.853 7.7 82.842 L 7.685 82.842 C 7.06 82.653 6.437 82.458 5.815 82.259 C 3.927 79.029 2.479 75.562 1.508 71.95 C 0.804 69.339 0.347 66.669 0.142 63.973 C 0.707 63.957 1.267 63.935 1.831 63.904 L 1.847 63.904 C 1.859 63.9 1.872 63.9 1.885 63.904 L 1.895 63.904 C 20.05 62.95 37.204 55.317 50.04 42.48 C 55.579 36.96 60.207 30.601 63.752 23.638 L 63.752 23.631 C 63.765 23.616 63.773 23.59 63.788 23.575 L 63.773 23.575 C 63.781 23.557 63.793 23.541 63.806 23.527 C 64.126 22.893 64.442 22.251 64.742 21.607 L 73.526 30.368 C 81.117 37.915 85.602 48.02 86.099 58.697 C 84.485 60.673 82.77 62.564 80.96 64.363 Z"
            fill="rgb(27,49,5)"
          ></path>
          <path
            d="M 50.038 42.48 C 49.514 43.005 48.977 43.52 48.443 44.025 C 48.097 44.355 47.748 44.667 47.4 44.989 C 45.629 46.596 43.777 48.113 41.851 49.532 C 41.38 49.892 40.9 50.227 40.414 50.574 C 39.956 50.904 39.5 51.216 39.03 51.531 C 38.918 51.607 38.801 51.678 38.691 51.759 C 38.307 52.015 37.903 52.274 37.514 52.525 C 34.63 54.364 31.617 55.995 28.5 57.405 C 28.373 57.469 28.233 57.532 28.093 57.593 C 27.628 57.806 27.165 57.999 26.699 58.199 C 26.172 58.425 25.638 58.643 25.104 58.849 C 24.57 59.052 23.997 59.28 23.433 59.491 C 22.914 59.678 22.389 59.858 21.878 60.046 C 21.318 60.234 20.784 60.414 20.242 60.579 C 19.7 60.741 19.148 60.916 18.599 61.071 C 18.049 61.228 17.5 61.385 16.958 61.535 C 16.416 61.682 15.844 61.824 15.287 61.951 C 14.73 62.078 14.18 62.21 13.615 62.326 C 11.397 62.811 9.158 63.192 6.904 63.47 C 5.233 63.668 3.555 63.815 1.875 63.909 L 1.839 63.909 L 1.834 63.912 L 1.829 63.912 L 1.829 63.909 C 1.262 63.94 0.687 63.963 0.124 63.978 C -0.053 61.66 -0.041 59.331 0.16 57.015 C 1.018 46.94 5.428 37.495 12.608 30.355 L 43.077 0 L 64.739 21.599 C 64.443 22.241 64.131 22.877 63.803 23.504 L 63.803 23.519 C 63.791 23.534 63.781 23.55 63.773 23.567 L 63.78 23.575 L 63.755 23.598 C 63.746 23.607 63.742 23.619 63.742 23.631 L 63.742 23.638 C 63.719 23.675 63.7 23.714 63.686 23.755 L 63.475 24.153 C 62.915 25.249 62.315 26.332 61.676 27.405 C 60.459 29.492 59.14 31.518 57.726 33.478 C 57.497 33.782 57.286 34.089 57.049 34.386 C 56.489 35.132 55.924 35.867 55.334 36.598 C 55.122 36.875 54.9 37.144 54.668 37.404 C 53.205 39.169 51.66 40.863 50.038 42.483 Z"
            fill="rgb(192,255,115)"
          ></path>
          <path
            d="M 1.508 71.955 C 0.805 69.345 0.347 66.675 0.142 63.98 C 18.92 63.44 36.777 55.746 50.04 42.48 C 56.119 36.424 61.093 29.358 64.739 21.599 C 64.739 21.599 57.064 56.553 1.508 71.955 Z M 11.41 89.82 C 9.277 87.511 7.401 84.979 5.815 82.267 C 32.247 90.895 61.299 83.972 80.96 64.358 C 82.767 62.554 84.483 60.66 86.099 58.684 C 86.099 58.684 64.671 96.337 11.41 89.818 Z"
            fill="rgb(0,0,0)"
            opacity="0.15"
          ></path>
          <path
            d="M 77.526 68.29 L 75.358 70.167 C 74.595 70.804 73.842 71.557 72.959 72.168 L 70.273 74.157 C 69.37 74.87 68.339 75.441 67.334 76.1 C 66.313 76.792 65.253 77.425 64.159 77.997 C 63.045 78.586 61.931 79.18 60.789 79.793 C 59.618 80.334 58.423 80.849 57.207 81.376 C 56.011 81.939 54.739 82.33 53.487 82.792 L 51.605 83.466 C 50.969 83.679 50.312 83.842 49.671 84.032 C 48.382 84.362 47.102 84.793 45.789 85.034 C 44.484 85.3 43.179 85.567 41.882 85.825 C 39.338 86.236 36.773 86.515 34.199 86.657 C 31.794 86.796 29.383 86.815 26.976 86.713 L 23.636 86.434 C 23.102 86.388 22.575 86.333 22.056 86.287 C 21.545 86.216 21.034 86.13 20.548 86.054 C 19.555 85.896 18.622 85.747 17.719 85.597 C 16.816 85.45 15.989 85.206 15.195 85.042 C 13.625 84.648 12.249 84.359 11.14 83.976 C 9.987 83.617 8.839 83.241 7.698 82.847 C 7.718 82.859 7.741 82.864 7.764 82.863 C 35.485 91.093 65.472 82.4 84.448 60.635 C 84.275 60.853 83.473 61.842 82.171 63.392 C 81.777 63.831 81.415 64.318 80.889 64.843 L 79.317 66.456 Z M 1.885 63.902 L 1.892 63.902 C 1.87 63.909 1.862 63.902 1.847 63.902 C 1.859 63.898 1.872 63.898 1.885 63.902 Z M 63.783 23.575 C 63.77 23.594 63.759 23.615 63.75 23.636 L 63.75 23.628 C 63.75 23.603 63.775 23.59 63.78 23.565 C 63.789 23.548 63.8 23.533 63.813 23.519 Z M 50.022 43.845 C 48.36 45.53 46.605 47.122 44.767 48.614 C 42.875 50.158 40.905 51.604 38.864 52.946 C 37.829 53.621 36.791 54.28 35.723 54.874 L 34.135 55.785 L 32.515 56.617 C 31.975 56.896 31.438 57.172 30.904 57.441 C 30.362 57.682 29.813 57.933 29.276 58.169 C 28.21 58.651 27.128 59.097 26.032 59.508 C 24.964 59.947 23.896 60.307 22.842 60.652 C 21.813 60.987 20.776 61.296 19.731 61.578 C 18.726 61.875 17.737 62.126 16.76 62.329 C 15.793 62.542 14.859 62.748 13.956 62.9 C 13.05 63.054 12.188 63.222 11.361 63.323 C 10.537 63.425 9.743 63.514 9.006 63.59 C 7.52 63.739 6.22 63.793 5.164 63.881 C 3.299 63.919 2.144 63.912 1.895 63.912 C 20.051 62.956 37.206 55.32 50.04 42.48 C 55.579 36.96 60.207 30.601 63.752 23.638 C 63.696 23.778 63.595 23.999 63.452 24.331 C 63.133 25.086 62.79 25.831 62.424 26.566 C 61.123 29.209 59.642 31.76 57.99 34.201 C 56.892 35.841 55.711 37.426 54.454 38.949 C 53.073 40.665 51.593 42.3 50.022 43.845 Z"
            fill="rgb(0,0,0)"
            opacity="0.25"
          ></path>
          <path
            d="M 80.96 64.363 C 61.818 83.462 33.717 90.561 7.764 82.855 C 8.069 82.911 9.311 83.147 11.252 83.55 C 12.366 83.829 13.768 83.989 15.348 84.217 C 16.925 84.496 18.731 84.618 20.682 84.788 C 21.176 84.828 21.68 84.874 22.183 84.927 C 22.692 84.935 23.211 84.953 23.74 84.96 C 24.799 84.998 25.893 85.021 27.014 85.062 C 29.253 84.96 31.619 84.983 34.056 84.702 C 36.499 84.562 38.974 84.09 41.513 83.723 L 45.293 82.916 C 46.565 82.662 47.799 82.231 49.051 81.904 C 49.682 81.731 50.318 81.582 50.931 81.379 L 52.77 80.737 C 53.986 80.306 55.227 79.946 56.4 79.403 C 57.57 78.911 58.741 78.416 59.903 77.932 C 61.028 77.373 62.142 76.82 63.236 76.285 C 64.35 75.783 65.358 75.111 66.388 74.555 C 67.406 73.959 68.438 73.444 69.349 72.792 C 71.211 71.542 73.02 70.418 74.541 69.196 C 75.33 68.617 76.083 68.052 76.798 67.511 C 77.495 66.93 78.141 66.375 78.747 65.857 L 80.461 64.399 C 80.97 63.983 81.42 63.491 81.845 63.1 C 83.306 61.69 84.232 60.827 84.438 60.64 C 83.339 61.91 82.176 63.151 80.96 64.363 Z M 50.04 42.48 C 37.204 55.319 20.049 62.955 1.892 63.909 C 1.87 63.917 1.862 63.909 1.847 63.909 C 1.859 63.906 1.872 63.906 1.885 63.909 C 2.144 63.869 3.294 63.696 5.141 63.453 C 6.177 63.265 7.441 63.085 8.881 62.78 C 10.318 62.476 11.944 62.121 13.681 61.659 C 14.562 61.456 15.455 61.19 16.383 60.906 C 17.312 60.624 18.276 60.35 19.25 60.005 C 20.232 59.686 21.232 59.346 22.239 58.94 C 23.244 58.534 24.28 58.174 25.292 57.71 C 26.333 57.271 27.378 56.825 28.406 56.3 C 29.444 55.815 30.495 55.29 31.517 54.732 C 32.044 54.453 32.56 54.176 33.09 53.9 L 34.621 52.999 C 35.647 52.401 36.654 51.769 37.638 51.105 C 39.635 49.818 41.565 48.433 43.421 46.952 C 48.445 42.986 52.991 38.453 56.968 33.442 C 58.784 31.171 60.476 28.803 62.038 26.35 C 62.964 24.909 63.554 23.945 63.742 23.633 C 63.742 23.608 63.768 23.593 63.773 23.57 C 63.781 23.552 63.793 23.536 63.806 23.522 C 63.806 23.522 63.798 23.547 63.78 23.578 C 60.231 30.564 55.593 36.944 50.038 42.48 Z"
            fill="rgb(255,255,255)"
            opacity="0.4"
          ></path>
          <path
            d="M 73.526 91.081 C 56.71 107.848 29.445 107.848 12.628 91.081 L 13.463 91.776 C 14.004 92.253 14.847 92.872 15.9 93.671 C 16.976 94.447 18.311 95.338 19.881 96.281 C 21.659 97.291 23.494 98.199 25.376 98.998 C 27.602 99.914 29.899 100.654 32.245 101.21 C 34.847 101.806 37.496 102.176 40.164 102.321 C 43.009 102.46 45.863 102.331 48.682 101.928 C 51.589 101.53 54.444 100.821 57.199 99.812 C 59.967 98.829 62.624 97.56 65.129 96.028 C 67.555 94.541 69.833 92.827 71.931 90.909 C 73.897 89.1 75.701 87.123 77.322 85.001 C 78.773 83.087 80.066 81.06 81.189 78.939 C 82.14 77.13 82.975 75.26 83.687 73.343 C 84.298 71.618 84.768 70.083 85.091 68.807 C 85.415 67.529 85.644 66.504 85.761 65.807 C 85.855 65.274 85.918 64.944 85.949 64.802 C 85.01 74.739 80.615 84.035 73.526 91.081 Z"
            fill="rgb(0,0,0)"
            opacity="0.25"
          ></path>
          <path
            d="M 47.303 5.58 L 43.115 1.603 L 37.519 7.369 C 35.407 9.555 33.237 11.704 31.093 13.873 C 28.95 16.041 26.793 18.19 24.626 20.321 C 22.456 22.451 20.308 24.615 18.103 26.731 L 14.811 29.901 L 13.201 31.479 C 12.666 32.035 12.102 32.557 11.621 33.1 C 10.606 34.178 9.652 35.307 8.764 36.491 C 7.868 37.684 7.044 38.926 6.258 40.197 C 5.48 41.471 4.773 42.786 4.139 44.137 C 3.493 45.496 2.914 46.886 2.404 48.302 C 1.399 51.135 0.653 54.054 0.178 57.022 C 1.035 46.948 5.444 37.503 12.623 30.363 L 43.075 0 L 62.72 19.588 C 59.228 16.546 55.784 13.451 52.388 10.304 L 47.303 5.578 Z"
            fill="rgb(255,255,255)"
            opacity="0.4"
          ></path>
        </g>
      </svg>