<svg width="125" height="41" fill="none" xmlns="http://www.w3.org/2000/svg"><mask id="a" style="mask-type:luminance" maskUnits="userSpaceOnUse" x="0" y="0" width="34" height="41"><path d="M33.855 0H0v40.864h33.855V0Z" fill="#fff"/></mask><g mask="url(#a)"><path d="M28.895 35.907a16.928 16.928 0 0 1-24.417-.498 17.121 17.121 0 0 1-2.2-2.977 21.186 21.186 0 0 0 .76.235h.007c.262.077.521.15.78.219.066.015.128.034.19.054.247.062.492.124.744.177.069.02.139.037.21.049.189.046.383.086.574.124.133.028.274.054.402.08.198.037.392.071.59.102.13.024.253.043.386.058.167.032.337.055.507.075.148.025.296.043.448.058.206.028.413.05.626.065a15.468 15.468 0 0 0 .949.077c.12.01.24.019.367.022.126.003.263.015.396.019a21.21 21.21 0 0 0 .84.018c.24.006.485 0 .726-.003.164.003.324-.003.481-.013.18 0 .356-.008.532-.018.102-.003.2-.009.296-.018.235-.013.47-.031.704-.05.12-.009.244-.021.365-.037a5.64 5.64 0 0 0 .51-.055c.164-.015.328-.037.488-.061.145-.016.29-.038.43-.059.184-.024.367-.055.546-.086.18-.032.371-.062.557-.1.085-.011.17-.028.253-.049.26-.05.519-.105.775-.164.322-.068.64-.145.955-.231a28.152 28.152 0 0 0 3.667-1.228c.15-.059.299-.12.447-.188.164-.066.324-.14.485-.214.133-.058.268-.12.401-.185.148-.068.297-.142.442-.213.531-.26 1.053-.534 1.566-.831.13-.074.256-.145.383-.222a5.79 5.79 0 0 0 .242-.143l.389-.24c.528-.329 1.044-.68 1.553-1.047l.343-.25.155-.118c.135-.099.268-.2.398-.306a21 21 0 0 0 .587-.47c.055-.04.102-.082.151-.126a25.584 25.584 0 0 0 .788-.682c.093-.08.182-.164.274-.25a26.374 26.374 0 0 0 1.294-1.272c.074-.074.145-.145.216-.223a31.7 31.7 0 0 0 .723-.802l.01-.01c.058-.065.117-.13.172-.198.158-.182.309-.365.464-.547a.049.049 0 0 0 .012-.019 17.11 17.11 0 0 1-.055 2.385v.018a16.862 16.862 0 0 1-4.884 10.367Z" fill="#C0FF73"/><path d="M31.817 25.374a28.981 28.981 0 0 1-28.772 7.29.044.044 0 0 1-.025-.005h-.006a50.88 50.88 0 0 1-.735-.23 16.6 16.6 0 0 1-1.693-4.064 17.09 17.09 0 0 1-.537-3.145c.222-.006.442-.015.664-.027h.006a.025.025 0 0 1 .015 0h.004a28.869 28.869 0 0 0 18.925-8.446 29.172 29.172 0 0 0 5.39-7.428v-.003c.005-.006.008-.016.014-.022h-.006a.081.081 0 0 1 .013-.019c.126-.25.25-.503.368-.757l3.453 3.454a16.877 16.877 0 0 1 4.942 11.168 29.131 29.131 0 0 1-2.02 2.234Z" fill="#1B3105"/><path d="M19.662 16.747c-.206.207-.417.41-.627.609-.136.13-.273.253-.41.38a27.713 27.713 0 0 1-2.181 1.791c-.185.142-.374.274-.565.411-.18.13-.359.253-.544.377-.044.03-.09.058-.133.09-.151.101-.31.203-.463.302a28.235 28.235 0 0 1-3.543 1.924c-.05.025-.105.05-.16.074-.183.084-.365.16-.548.239-.207.089-.417.175-.627.256-.21.08-.435.17-.657.253-.204.074-.41.145-.611.219-.22.074-.43.145-.643.21-.213.064-.43.133-.646.194-.216.062-.432.124-.645.183-.213.058-.438.114-.657.164-.219.05-.435.102-.657.148a28.943 28.943 0 0 1-2.638.451 32.09 32.09 0 0 1-1.977.173H.716l-.002.001H.712v-.001c-.223.012-.449.021-.67.027a16.944 16.944 0 0 1 .014-2.745 16.858 16.858 0 0 1 4.893-10.51L16.926 0l8.515 8.515a17.25 17.25 0 0 1-.368.751v.006a.079.079 0 0 0-.012.019l.003.003-.01.009a.017.017 0 0 0-.005.013v.003a.222.222 0 0 0-.022.046l-.083.157c-.22.432-.456.859-.707 1.282a29.512 29.512 0 0 1-1.553 2.394c-.09.12-.173.241-.266.358-.22.294-.442.584-.674.872a5.467 5.467 0 0 1-.262.318 28.828 28.828 0 0 1-1.82 2.002Z" fill="#C0FF73"/><path d="M.586 28.367a17.09 17.09 0 0 1-.537-3.144 28.872 28.872 0 0 0 19.614-8.476 29.075 29.075 0 0 0 5.778-8.232S22.424 22.295.586 28.367Zm3.892 7.043a17.125 17.125 0 0 1-2.199-2.978 29.003 29.003 0 0 0 29.538-7.06 29.93 29.93 0 0 0 2.02-2.237S25.414 37.979 4.478 35.409Z" fill="#000" style="mix-blend-mode:multiply" opacity=".15"/><path d="m30.467 26.922-.852.74c-.3.251-.596.548-.943.789l-1.056.784c-.355.281-.76.506-1.155.766a12.91 12.91 0 0 1-1.248.748c-.438.232-.876.466-1.325.708-.46.213-.93.416-1.408.624-.47.222-.97.376-1.462.558l-.74.266c-.25.084-.508.148-.76.223-.507.13-1.01.3-1.526.395-.513.105-1.026.21-1.536.312-1 .162-2.008.272-3.02.328a28.3 28.3 0 0 1-2.839.022l-1.313-.11c-.21-.018-.417-.04-.621-.058-.201-.028-.402-.062-.593-.092-.39-.062-.757-.121-1.112-.18-.355-.058-.68-.154-.992-.219-.617-.155-1.158-.269-1.594-.42a47.224 47.224 0 0 1-1.353-.445.045.045 0 0 0 .026.006 28.981 28.981 0 0 0 30.143-8.763c-.068.086-.383.476-.895 1.087-.155.173-.297.365-.504.572l-.618.636-.704.723ZM.734 25.192h.003c-.009.003-.012 0-.018 0a.027.027 0 0 1 .015 0ZM25.065 9.294a.163.163 0 0 0-.013.024v-.003c0-.01.01-.015.012-.025a.077.077 0 0 1 .013-.018l-.012.022Zm-5.409 7.991a25.341 25.341 0 0 1-2.066 1.88 27.957 27.957 0 0 1-2.32 1.708c-.407.266-.815.526-1.235.76l-.624.359-.637.328c-.212.11-.423.219-.633.325-.213.095-.429.194-.64.287a21.11 21.11 0 0 1-1.275.528c-.42.173-.84.315-1.254.451a24.82 24.82 0 0 1-1.223.365c-.395.117-.784.216-1.168.296-.38.084-.747.165-1.102.225-.356.061-.695.127-1.02.167-.324.04-.636.075-.926.105-.584.059-1.095.08-1.51.115-.733.015-1.187.012-1.285.012a28.869 28.869 0 0 0 18.925-8.449 29.172 29.172 0 0 0 5.39-7.428c-.022.055-.062.142-.118.273a15.66 15.66 0 0 1-.404.881 25.36 25.36 0 0 1-1.743 3.01 23.338 23.338 0 0 1-1.39 1.872 22.437 22.437 0 0 1-1.742 1.93Z" fill="#000" style="mix-blend-mode:multiply" opacity=".25"/><path d="M31.817 25.374a28.982 28.982 0 0 1-28.772 7.29c.12.022.608.115 1.371.274.438.11.989.173 1.61.263.62.11 1.33.158 2.097.225.194.016.392.034.59.055.2.003.404.01.612.013.416.015.846.024 1.287.04.88-.04 1.81-.031 2.768-.142.96-.055 1.933-.241 2.931-.386l1.486-.318c.5-.1.985-.27 1.477-.399.248-.068.498-.127.739-.207l.723-.253c.478-.17.966-.312 1.427-.526.46-.194.92-.389 1.377-.58.442-.22.88-.438 1.31-.649.438-.198.834-.463 1.239-.682.4-.235.806-.438 1.164-.695.732-.493 1.443-.936 2.041-1.418.31-.228.606-.451.887-.664.274-.229.528-.448.766-.652l.674-.575c.2-.164.377-.358.544-.512.574-.556.938-.896 1.019-.97-.432.501-.889.99-1.367 1.468Zm-12.154-8.627A28.869 28.869 0 0 1 .737 25.195c-.009.003-.012 0-.018 0a.027.027 0 0 1 .015 0c.102-.016.554-.084 1.28-.18.407-.074.904-.145 1.47-.265.565-.12 1.204-.26 1.887-.442.346-.08.697-.185 1.062-.297.365-.111.744-.219 1.127-.355.386-.126.779-.26 1.175-.42.395-.16.802-.302 1.2-.485.409-.173.82-.349 1.224-.556.408-.191.821-.398 1.223-.618.207-.11.41-.219.618-.328l.602-.355a21.24 21.24 0 0 0 1.186-.747 27.737 27.737 0 0 0 2.273-1.637 32.589 32.589 0 0 0 5.325-5.326 31.942 31.942 0 0 0 1.993-2.796c.364-.568.596-.948.67-1.071 0-.01.01-.016.012-.025a.082.082 0 0 1 .013-.019s-.003.01-.01.022a29.173 29.173 0 0 1-5.402 7.452Z" fill="#fff" style="mix-blend-mode:screen" opacity=".4"/><path d="M28.895 35.907a16.927 16.927 0 0 1-23.938 0l.328.274c.213.188.544.432.958.747.423.306.948.657 1.565 1.029.699.398 1.42.756 2.16 1.071.875.361 1.778.653 2.7.872 1.023.235 2.064.381 3.113.438 1.118.055 2.24.004 3.348-.155a16.042 16.042 0 0 0 3.348-.834 16.632 16.632 0 0 0 3.117-1.492 17.556 17.556 0 0 0 2.674-2.018 18.054 18.054 0 0 0 2.119-2.329 17.577 17.577 0 0 0 1.52-2.39c.374-.713.702-1.45.982-2.206.24-.68.425-1.285.552-1.788.127-.504.217-.908.263-1.183.037-.21.062-.34.074-.396a16.862 16.862 0 0 1-4.883 10.36Z" fill="#000" style="mix-blend-mode:multiply" opacity=".25"/><path d="M18.587 2.2 16.941.632l-2.2 2.273c-.83.862-1.683 1.709-2.526 2.564-.842.855-1.69 1.702-2.542 2.542-.853.84-1.697 1.693-2.564 2.527l-1.294 1.25-.633.622c-.21.219-.432.425-.621.639-.399.425-.774.87-1.123 1.337-.352.47-.676.96-.985 1.461A16.112 16.112 0 0 0 1.62 17.4a18.255 18.255 0 0 0-.682 1.642 19.569 19.569 0 0 0-.875 3.438 16.858 16.858 0 0 1 4.892-10.51L16.925 0l7.722 7.722a176.72 176.72 0 0 1-4.061-3.66l-1.999-1.863Z" fill="#fff" style="mix-blend-mode:screen" opacity=".4"/></g><path d="M71.047 32.864h-6.302l-3.933-16.169h.948l-3.932 16.17H51.49L46.206 9.69h6.022l2.791 16.256h-.07L59.303 9.69h3.95l4.37 16.256h-.07L70.345 9.69h6.022l-5.32 23.173Zm7.182-14.413h2.458v-5.916h5.284v5.916h3.23v4.389h-3.23v4.02c0 .597.088 1.083.263 1.457.176.363.498.544.966.544.316 0 .585-.07.807-.21.223-.14.357-.234.404-.281l1.826 3.792c-.082.07-.34.199-.773.386a9.725 9.725 0 0 1-3.81.737c-1.439 0-2.627-.403-3.563-1.21-.936-.82-1.404-2.078-1.404-3.775v-5.46h-2.458v-4.39Zm24.026-.421a7.44 7.44 0 0 1 2.949.614c.96.41 1.75 1.06 2.37 1.949.62.878.93 2.036.93 3.476v8.795h-5.336v-7.917c0-1.03-.235-1.803-.703-2.318-.456-.527-1.082-.79-1.878-.79-.527 0-1.03.14-1.51.422-.48.269-.872.655-1.176 1.158-.293.492-.439 1.06-.439 1.703v7.742h-5.354V8.708h5.354v11.867c.129-.386.415-.772.86-1.159.457-.397 1.024-.725 1.703-.983a6.088 6.088 0 0 1 2.23-.403Zm14.28 14.834h-5.337V18.451h5.337v2.23h-.088c.094-.27.322-.61.685-1.019.362-.421.872-.796 1.527-1.123.655-.34 1.457-.51 2.405-.51.667 0 1.282.106 1.843.317.562.199.972.392 1.229.579l-2.071 4.336c-.164-.199-.457-.404-.878-.614-.41-.223-.925-.334-1.545-.334-.714 0-1.305.182-1.773.544a3.37 3.37 0 0 0-1.018 1.317c-.211.515-.316 1-.316 1.457v7.233Z" fill="#C0FF73"/></svg>